<?xml version="1.0" encoding="iso-8859-1"?>
<!-- Generator: Adobe Illustrator 21.0.0, SVG Export Plug-In . SVG Version: 6.00 Build 0)  -->
<svg xmlns="http://www.w3.org/2000/svg" xmlns:xlink="http://www.w3.org/1999/xlink" version="1.1" id="Capa_1" x="0px" y="0px" viewBox="0 0 509.619 509.619" style="enable-background:new 0 0 509.619 509.619;" xml:space="preserve" width="512" height="512">
<g>
	<path d="M254.81,347.6c17.867,0,32.403-14.536,32.403-32.403s-14.536-32.403-32.403-32.403s-32.403,14.536-32.403,32.403   S236.942,347.6,254.81,347.6z M254.81,297.793c9.596,0,17.403,7.807,17.403,17.403S264.406,332.6,254.81,332.6   s-17.403-7.807-17.403-17.403S245.213,297.793,254.81,297.793z"/>
	<path d="M479.159,440.991c4.142,0,7.5-3.358,7.5-7.5V388.58c0-2.704-1.455-5.198-3.808-6.528l-116.77-66.029v-23.794   c0-2.642-1.391-5.09-3.66-6.442l-19.302-11.504v-34.569c0-4.142-3.358-7.5-7.5-7.5s-7.5,3.358-7.5,7.5v25.629l-69.469-41.402   c-2.366-1.41-5.313-1.41-7.68,0L181.5,265.343v-101.81h146.618v46.181c0,4.142,3.358,7.5,7.5,7.5s7.5-3.358,7.5-7.5v-53.681   c0-1.68-0.59-3.361-1.636-4.676l-79.173-99.29V33.283h8.97c4.142,0,7.5-3.358,7.5-7.5c0-4.142-3.358-7.5-7.5-7.5h-8.97V7.5   c0-4.142-3.358-7.5-7.5-7.5s-7.5,3.358-7.5,7.5v10.783h-8.97c-4.142,0-7.5,3.358-7.5,7.5c0,4.142,3.358,7.5,7.5,7.5h8.97v18.775   l-79.173,99.299c-1.047,1.314-1.636,2.996-1.636,4.676v118.25l-19.302,11.504c-2.27,1.353-3.66,3.8-3.66,6.442v23.794   l-116.77,66.029c-2.353,1.331-3.808,3.825-3.808,6.528v113.539c0,4.142,3.358,7.5,7.5,7.5h448.698c4.142,0,7.5-3.358,7.5-7.5   v-38.628c0-4.142-3.358-7.5-7.5-7.5c-4.142,0-7.5,3.358-7.5,7.5v31.128H366.081V333.254l105.578,59.701v40.536   C471.659,437.633,475.017,440.991,479.159,440.991z M254.806,66.717l65.24,81.816H189.573L254.806,66.717z M151.038,396.628   c-4.142,0-7.5,3.358-7.5,7.5v90.491H37.96V392.955l105.578-59.701v40.874c0,4.142,3.358,7.5,7.5,7.5c4.142,0,7.5-3.358,7.5-7.5   v-53.859c0-0.003,0-0.006,0-0.009V296.49l96.271-57.376l96.271,57.376v23.771c0,0.003,0,0.006,0,0.009v174.35h-46.447v-73.386   c0-27.474-22.351-49.825-49.825-49.825s-49.825,22.351-49.825,49.825v73.386h-46.447v-90.491   C158.538,399.986,155.18,396.628,151.038,396.628z M289.634,494.619h-69.649v-73.386c0-19.203,15.622-34.825,34.825-34.825   s34.825,15.622,34.825,34.825V494.619z"/>
</g>















</svg>
