<svg height="512pt" viewBox="-16 0 512 512" width="512pt" xmlns="http://www.w3.org/2000/svg"><path d="m250 236c0 5.523438-4.476562 10-10 10s-10-4.476562-10-10 4.476562-10 10-10 10 4.476562 10 10zm0 0"/><path d="m220 326h10v30c0 5.523438 4.476562 10 10 10s10-4.476562 10-10v-30h10c5.523438 0 10-4.476562 10-10s-4.476562-10-10-10h-10v-10c0-5.523438-4.476562-10-10-10s-10 4.476562-10 10v10h-10c-5.523438 0-10 4.476562-10 10s4.476562 10 10 10zm0 0"/><path d="m310 466h40c5.523438 0 10-4.476562 10-10v-40c0-16.542969-13.457031-30-30-30s-30 13.457031-30 30v40c0 5.523438 4.476562 10 10 10zm10-50c0-5.515625 4.484375-10 10-10s10 4.484375 10 10v30h-20zm0 0"/><path d="m150 386c-16.542969 0-30 13.457031-30 30v40c0 5.523438 4.476562 10 10 10h40c5.523438 0 10-4.476562 10-10v-40c0-16.542969-13.457031-30-30-30zm10 60h-20v-30c0-5.515625 4.484375-10 10-10s10 4.484375 10 10zm0 0"/><path d="m30 366c-5.523438 0-10 4.476562-10 10v116h-10c-5.523438 0-10 4.476562-10 10s4.476562 10 10 10h460c5.523438 0 10-4.476562 10-10s-4.476562-10-10-10h-10c0-6.335938 0-105.65625 0-116 0-5.523438-4.476562-10-10-10s-10 4.476562-10 10v20l-40-30v-70c0-5.523438-4.476562-10-10-10s-10 4.476562-10 10v21.316406l-80-53.335937v-83.980469h10c5.523438 0 10-4.476562 10-10s-4.476562-10-10-10h-13.820312l-46.179688-92.359375v-27.640625h10c5.523438 0 10-4.476562 10-10s-4.476562-10-10-10h-10v-10c0-5.523438-4.476562-10-10-10s-10 4.476562-10 10v10h-10c-5.523438 0-10 4.476562-10 10s4.476562 10 10 10h10v27.640625l-46.179688 92.359375h-13.820312c-5.523438 0-10 4.476562-10 10s4.476562 10 10 10h10v83.980469l-80 53.332031v-21.3125c0-5.523438-4.476562-10-10-10s-10 4.476562-10 10v70l-40 30v-20c0-5.523438-4.476562-10-10-10zm230 126h-40v-66c0-11.027344 8.972656-20 20-20s20 8.972656 20 20zm180-71v71h-40v-101zm-200-328.640625 33.820312 67.640625h-67.640624zm40 87.640625v71.292969c-4.023438-1.070313-8.449219.453125-10.886719 4.113281-3.0625 4.59375-1.824219 10.804688 2.773438 13.867188 14.484375 9.65625 90.308593 60.207031 108.113281 72.078124v150.648438h-100v-66c0-22.054688-17.945312-40-40-40s-40 17.945312-40 40v66h-100v-150.648438c22.117188-14.746093 86.144531-57.429687 108.113281-72.078124 4.597657-3.0625 5.835938-9.269532 2.773438-13.867188-2.4375-3.65625-6.863281-5.179688-10.886719-4.109375v-71.296875zm-200 312h-40v-71l40-30zm0 0"/></svg>